<?xml version="1.0" encoding="utf-8"?>
<!-- Generator: Adobe Illustrator 24.0.2, SVG Export Plug-In . SVG Version: 6.00 Build 0)  -->
<svg version="1.1" id="Layer_1" xmlns="http://www.w3.org/2000/svg" xmlns:xlink="http://www.w3.org/1999/xlink" x="0px" y="0px"
	 viewBox="0 0 40 40" style="enable-background:new 0 0 40 40;" xml:space="preserve">
<g>
	<path d="M25.4,17H15.2c-0.4,0-0.6,0.3-0.6,0.6c0,0.4,0.3,0.6,0.6,0.6h10.1c0.4,0,0.6-0.3,0.6-0.6C26,17.2,25.7,17,25.4,17L25.4,17z
		"/>
</g>
<g>
	<path d="M25.4,20.5H15.2c-0.4,0-0.6,0.3-0.6,0.6s0.3,0.6,0.6,0.6h10.1c0.4,0,0.6-0.3,0.6-0.6S25.7,20.5,25.4,20.5L25.4,20.5z"/>
</g>
<g>
	<path d="M20.3,24.1h-5.1c-0.4,0-0.6,0.3-0.6,0.6c0,0.4,0.3,0.6,0.6,0.6h5.1c0.4,0,0.6-0.3,0.6-0.6C20.9,24.4,20.7,24.1,20.3,24.1
		L20.3,24.1z"/>
</g>
<path d="M28.9,9.5l-1.6-1.6V6.4h0.6c0.3,0,0.6-0.3,0.6-0.6V4.1c0-0.2-0.1-0.3-0.2-0.4l-1.2-1.2c-0.1-0.1-0.3-0.2-0.4-0.2H14.1
	c-0.2,0-0.3,0.1-0.4,0.2l-1.2,1.2c-0.1,0.1-0.2,0.3-0.2,0.4v1.7c0,0.3,0.3,0.6,0.6,0.6h0.6v1.5l-1.6,1.6c-0.1,0.1-0.2,0.3-0.2,0.4
	v25.4c0,1,0.8,1.7,1.7,1.7h13.8c1,0,1.7-0.8,1.7-1.7V9.9C29.1,9.7,29,9.6,28.9,9.5z M13.5,4.4l0.8-0.8h12.2l0.8,0.8v0.9H13.5V4.4z
	 M26.2,6.4v1.2H14.6V6.4H26.2z M27.9,35.3c0,0.3-0.3,0.6-0.6,0.6H13.5c-0.3,0-0.6-0.3-0.6-0.6V10.1l1.4-1.4h12.2l1.4,1.4V35.3z"/>
</svg>
