<?xml version="1.0" encoding="utf-8"?>
<!-- Generator: Adobe Illustrator 24.0.2, SVG Export Plug-In . SVG Version: 6.00 Build 0)  -->
<svg version="1.1" id="Layer_1" xmlns="http://www.w3.org/2000/svg" xmlns:xlink="http://www.w3.org/1999/xlink" x="0px" y="0px"
	 viewBox="0 0 60 60" style="enable-background:new 0 0 60 60;" xml:space="preserve">
<style type="text/css">
	.st0{fill:#07A247;}
</style>
<g>
	<path class="st0" d="M55.5,26.6c-1.5-0.7-3-1.4-4.5-2.2c-1.6-0.9-3.3-1.7-4.9-2.7c-1.2-0.8-2.1-1.9-2.3-3.4
		c-0.1-0.4-0.1-0.9-0.4-1.1c-1.2-1.2-2.5-2.3-3.8-3.4C38,12.4,36,11.4,34,10.3c-1.2-0.6-2.4-0.7-3.5,0c0,0.3,0.1,0.6,0.1,0.8
		c-0.2,0.9-0.4,1.8-0.7,2.7c-0.4,0.9-0.9,1.7-0.8,2.7c0.1,1.8,0.2,3.6,0.1,5.4c0,1.1-0.2,2.3-0.5,3.4c-0.4,1.5-1,2.9-2.2,3.9
		c-0.9,0.8-2,1.3-3.3,0.9c-1.4-0.3-2.3-1.2-3.2-2.2c-1.7-2-3.3-4.1-4.9-6.2c-0.4-0.5-0.6-0.5-0.9,0c-0.5,0.8-0.8,1.7-1.2,2.6
		c-0.1,0.2-0.2,0.5-0.3,0.7c-0.3,0.6-1.1,1.7-2.6,3.6c-3,3.7-6.1,4.9-6.1,4.9s4,9.6,11.8,13.1C23,49.9,27,53.1,27,53.1
		s0.7-4.7,4-9.3c2.5-3.5,4.7-4.7,6-5.1c-1.6-1.5-3.2-3.4-3.6-3.9c-0.1-0.1-0.1-0.1-0.1-0.1s0,0,0.1,0.1c0.3,0.3,1.3,1.4,4.3,3.3
		c0.2,0.1,0.4,0.3,0.6,0.4c1.4,0.5,2.8,0.6,4.2,0.1c0.9-0.3,1.9-0.3,2.8-0.3c0.5,0,1,0,1.4-0.2c0.8-0.3,1.5-0.8,2.3-1.2
		c0.4-0.2,0.9-0.3,1.2-0.5c0.6-0.5,1.3-0.6,2.1-0.6c0.7,0,1.4-0.2,1.8-0.8c0.5-0.7,0.8-1.4,0.9-2.3c0-0.5,0.2-0.8,0.6-0.9
		c0.3-0.1,0.6-0.4,0.6-0.7c0.2-0.9,0.3-1.8,0.4-2.7C56.5,27.7,56.3,27,55.5,26.6z M37.3,20.3c0.5-0.2,1-0.4,1.5-0.6s0.8-0.1,1.1,0.3
		c0.2,0.3,0.3,0.6,0.5,0.9C39.7,21.6,37.7,21.1,37.3,20.3z M40.8,19.2c-1-0.9-2.1-0.6-3.3-0.6c0.1-0.1,0.3-0.1,0.4-0.2
		c1-0.3,2.1-0.8,2.8,0.5C40.8,19,40.8,19,40.8,19.2z"/>
	<path class="st0" d="M14.6,20.4c1.5,1.7,2.8,3.6,4.3,5.3c1,1.2,1.8,2.4,3.1,3.2c1,0.6,2,0.8,3,0.2c1.2-0.6,1.9-1.7,2.4-2.9
		c0.9-2.1,1-4.4,0.9-6.7c-0.1-1.4-0.1-2.7-0.1-4.1c0-0.4,0.1-0.8,0.3-1.1c0.7-1,1.1-2,1.2-3.2c0-0.4-0.1-0.8-0.5-0.9
		c-0.7-0.2-0.7-0.6-2.1-0.6c-1.7,0-3.3,0.3-4.8,1c-2.5,1.1-5,2.3-7.5,3.6c-1.7,0.8-2.1,1.8-1.6,3.9C13.4,19.2,14,19.8,14.6,20.4z"/>
</g>
</svg>
