<?xml version="1.0" encoding="utf-8"?>
<!-- Generator: Adobe Illustrator 23.0.1, SVG Export Plug-In . SVG Version: 6.00 Build 0)  -->
<svg version="1.1" id="Layer_1" xmlns="http://www.w3.org/2000/svg" xmlns:xlink="http://www.w3.org/1999/xlink" x="0px" y="0px"
	 viewBox="0 0 60 60" style="enable-background:new 0 0 60 60;" xml:space="preserve">
<style type="text/css">
	.st0{fill:#07A247;}
</style>
<g>
	<path class="st0" d="M49.1,37.5c-0.9-0.3-1.7-0.5-2.5-0.8c-0.4-0.1-0.8-0.4-1.2-0.6c-0.7-0.4-0.9-1.1-0.9-1.8c0.5,0.4,1,1,1.6,1.3
		c1.6,0.7,3.2,1.2,4.9,1.2c1.8,0,2.7-0.6,3.3-2.4c0.5-1.4,0.8-2.9,1.2-4.4c0.1-0.5,0-1.1-0.1-1.6c-0.2-0.6-0.7-0.8-1.3-0.4
		c-0.9,0.5-1.3,1.4-1.7,2.2c-0.2,0.4-0.3,0.9-0.5,1.3c0,0.1-0.1,0.1-0.4,0.1c0.3-1.2,0.5-2.4,0.8-3.6c-2.3,0-4.3-1.3-6.4-2.1
		c-1.4-0.6-2.9-1.3-4.1-2.3c-1.1-0.9-2-2.2-2.9-3.3c-1.3-1.5-2.7-2.9-4.4-3.9c-0.7-0.5-1-0.4-1.6,0.1c-0.1,0.1-0.1,0.3-0.2,0.5
		c-0.1-0.1-0.2-0.2-0.3-0.3c1.8-2.8,4-5.2,6.3-7.6c-5.6-1.3-10.3,0.4-14.4,4c-1.5,1.3-2.1,3.1-1.8,5.1c0.1,0.9,0.3,1.7,0.5,2.6
		c-1.4-1.7-1.3-3.7-1.1-5.8c-1.1,0.2-2.2,0.4-3.3,0.6c-2.6,0.5-5.3,1-7.9,1.5c-1.1,0.2-2.1,0.5-3.2,0.8c-0.8,0.2-1.7,0.3-2.5,0.5
		c-0.5,0.1-0.6,0.4-0.7,0.9C4,22.8,4,26.5,4.6,30.1c1.5,9,5.4,16.7,12.8,22.4c0.6,0.5,1.2,1.2,1.8,1.2c0.6,0,1.2-0.7,1.8-1.2
		c2.7-2.2,5.3-4.5,8.1-6.9c-2.5-1.1-4.7-2.2-6.2-4.4c0.8,0.5,1.5,1,2.3,1.4c2.5,1.3,5.2,2,8,2.3C34.6,45,36,45,37.5,45
		c1.2,0,2.1-0.5,3.1-1c3.1-1.6,6-3.6,8.4-6.2C49,37.7,49,37.6,49.1,37.5z M33.1,24.8c1.3-1,2.3-1,3.2,0.1
		C35.2,25.7,34.2,25.9,33.1,24.8z M37.3,23.1c-0.5-0.3-1.1-0.8-1.7-1.1c-0.6-0.2-1.4-0.2-2.1-0.3C35.2,20.8,37.3,21.7,37.3,23.1z"/>
	<path class="st0" d="M42.6,12.9c-3.1-1.4-6.1-0.6-8.1,1.8c-0.1,0.1,0,0.5,0.1,0.6c0.8,0.7,1.7,1.4,2.5,2c0.1,0.1,0.4,0.1,0.5,0
		C39.2,15.9,40.9,14.5,42.6,12.9C42.6,13.1,42.6,13,42.6,12.9z"/>
</g>
</svg>
