<?xml version="1.0" encoding="utf-8"?>
<!-- Generator: Adobe Illustrator 23.0.3, SVG Export Plug-In . SVG Version: 6.00 Build 0)  -->
<svg version="1.1" id="Layer_1" xmlns="http://www.w3.org/2000/svg" xmlns:xlink="http://www.w3.org/1999/xlink" x="0px" y="0px"
	 viewBox="0 0 37.2 37.3" style="enable-background:new 0 0 37.2 37.3;" xml:space="preserve">
<style type="text/css">
	.st0{fill:#798D92;}
</style>
<path class="st0" d="M36.6,34.5c-4.1-4.1-6.2-6.2-10.2-10.2c0-0.1-0.1-0.1-0.2-0.2c0.1-0.1,0.1-0.1,0.1-0.1c0.1,0,0.1-0.1,0.1-0.1
	c2.6-3.4,3.6-7.3,2.9-11.5c-0.6-3.9-2.6-7.1-5.8-9.4c-2-1.5-4.3-2.4-6.8-2.7c-0.3,0-0.7-0.1-1-0.1c-0.6,0-1.1,0-1.6,0
	c-0.3,0-0.7,0.1-1,0.1c-3.6,0.4-6.6,2-9,4.6c-2,2.1-3.2,4.7-3.7,7.4c0,0.5-0.1,0.9-0.1,1.3c0,0.1,0,0.1,0,0.2c0,0.6,0,1.1,0,1.6
	c0,0.1,0,0.1,0,0.2c0.1,0.8,0.1,1.5,0.3,2.3C2.3,25.2,9.1,30,16.5,29.2c2.8-0.3,5.2-1.3,7.4-3c0.1,0,0.1,0,0.2-0.1
	c0,0.1,0,0.1,0.1,0.2c4,4,6.4,6.4,10.4,10.4c0,0,0,0,0,0c0,0,0,0,0,0c0,0,0,0,0,0c0.3,0.2,0.6,0.4,1,0.4c0.8,0,1.5-0.7,1.5-1.5
	C37.1,35.2,36.9,34.8,36.6,34.5z M14.9,26.1C8.6,26.1,3.5,21,3.5,14.7C3.6,8.4,8.6,3.3,14.9,3.3c6.3,0,11.4,5.1,11.4,11.4
	C26.3,21,21.2,26.1,14.9,26.1z"/>
</svg>
