<?xml version="1.0" encoding="utf-8"?>
<!-- Generator: Adobe Illustrator 23.0.1, SVG Export Plug-In . SVG Version: 6.00 Build 0)  -->
<svg version="1.1" id="Layer_1" xmlns="http://www.w3.org/2000/svg" xmlns:xlink="http://www.w3.org/1999/xlink" x="0px" y="0px"
	 viewBox="0 0 60 60" style="enable-background:new 0 0 60 60;" xml:space="preserve">
<style type="text/css">
	.st0{fill:#07A247;}
</style>
<g>
	<path class="st0" d="M35.9,36.4c0.1,1,0.1,2,0.2,2.9c0.2,1,0.4,2.1,0.8,3.1c0.4,0.9,1.2,1.3,2.2,1.2c1.7-0.1,3.3-0.5,4.6-1.6
		c1.7-1.5,1.9-3.5,1.5-5.5c-0.4-1.7-1-3.4-1.6-5.1c0.2,0,0.5-0.1,0.9-0.1c2.7,0.1,5.3,0.2,8,0.4c0.4,0,0.8,0.3,1.1,0.6
		c0.4,0.3,0.7,0.8,1.1,1.1c0.1-3.6-2.4-5.5-4.9-7.3c0.6-0.2,1.2-0.4,1.7-0.6c0.7-0.4,0.9-1.1,0.4-1.7c-0.7-0.9-1.3-1.9-1.2-3.2
		c0-0.7-0.4-1.2-1.1-1.3c-0.2,0-0.5-0.3-0.5-0.5c-0.1-0.6-0.1-1.1-0.2-1.7c-0.1-1.2-0.7-1.6-1.9-1.2c-0.7,0.3-1.3,0-1.6-0.8
		c-0.1-0.4-0.1-0.9-0.1-1.3c0-0.9,0-1.7-0.1-2.6c0-0.3-0.3-0.6-0.6-0.7c-0.2-0.1-0.7,0.1-0.8,0.3c-0.4,0.5-0.8,1.1-1.2,1.7
		c-0.2,0.3-0.5,0.7-0.9,1.2c-0.3-0.8-0.6-1.4-0.8-2.1c-0.3-1.3-0.5-2.7-0.9-4c-0.2-0.8-0.8-1.3-1.4-1.5c-0.6,1.3-1.1,2.5-1.8,3.8
		c-1.2-1.1-1.7-2.4-2-3.8c-0.2-0.6-0.3-1.3-0.4-1.9c-0.1-0.6-0.5-0.4-0.9-0.2c-1.2,0.5-2.2,1.3-3.1,2.2c-1.8,1.7-2.2,5-0.5,7.1
		c-0.8,0.1-1.5,0.3-2.3,0.4c-4,0.7-7.6,2.3-10.6,5.1c-3.1,2.7-6,5.6-8.4,9c-1.1,1.5-2.1,3.1-3.2,4.6c-0.6,0.9-0.2,1.7,0.1,2.5
		c1.6,5.6,5.1,9.7,10,12.6c3.7,2.2,7.7,3.7,11.9,4.8c2.8,0.8,5.7,1.3,8.6,2c0.6,0.1,1.1,0.2,1.7,0.4c0.6,0.1,0.9-0.1,0.9-0.6
		c0.1-2.1,0.3-4.2,0.3-6.4c0-0.8-0.1-1.6-0.3-2.3c0-0.2-0.3-0.4-0.4-0.4c-1.3-0.2-1.9-1.1-2.2-2.2c-0.3-1.1-0.4-2.2-0.5-3.2
		s0-2,0-2.9C35.7,36.4,35.8,36.4,35.9,36.4z M53.8,31.2c-3.5-2-7.3-2-11-2.5c0,0.1,0,0.2-0.1,0.3c2.6,0.5,5.3,0.9,7.9,1.4
		c0,0.1,0-0.1,0,0c-0.5-0.1-1,0-1.4,0.1c-1.7,0.1-3.4,0.2-5.1,0.4c-0.3,0-0.7,0.1-1-0.1c-0.8-0.6-1.5-1.3-2.4-2.1
		c1-1.4,2.4-2.6,4.2-3.4c1-0.5,2-0.8,3-0.1C50.4,26.7,52.3,28.6,53.8,31.2z M36.1,21.6c1,0,1.9,0.9,1.9,1.9c0,1.1-0.9,2-2,1.9
		c-1.1,0-1.9-0.9-1.9-1.9C34.2,22.4,35.1,21.6,36.1,21.6z M32.7,22.8c-0.5,1.9,0.3,3.2,2,4.1c-1.1,0-2-0.5-2.4-1.4
		C31.8,24.6,32,23.6,32.7,22.8z"/>
	<path class="st0" d="M50,28.2c-0.9-0.6-1.8-1.2-2.7-1.9c-0.1,0.1-0.1,0.2-0.2,0.2c0.7,0.9,1.3,2,2.7,1.9
		C49.8,28.4,49.9,28.3,50,28.2z"/>
</g>
</svg>
