<?xml version="1.0" encoding="utf-8"?>
<!-- Generator: Adobe Illustrator 24.0.2, SVG Export Plug-In . SVG Version: 6.00 Build 0)  -->
<svg version="1.1" id="Layer_1" xmlns="http://www.w3.org/2000/svg" xmlns:xlink="http://www.w3.org/1999/xlink" x="0px" y="0px"
	 viewBox="0 0 60 60" style="enable-background:new 0 0 60 60;" xml:space="preserve">
<style type="text/css">
	.st0{fill:#07A247;}
</style>
<g>
	<path class="st0" d="M55.9,37.6c-0.6-0.6-1.2-1.1-1.9-1.7c-1.2-1.1-2.5-2.3-3.6-3.5c-2.7-3-5.4-6-8-9c-0.4-0.5-0.5-1.2-0.9-1.9
		c-1.2-2.3-3.1-3.8-5.4-4.9c-1.6-0.5-3.3-1-5.4-0.9c1.5-3.2,2.3-6.4,1.7-9.9c0-0.2-0.2-0.4-0.3-0.7c-0.3,1-0.5,2-0.8,2.9
		c-0.7,2.3-2.1,4.3-3.6,6.1c-0.4,0.5-0.8,0.9-1.3,1.3c-2.1,2-3.1,1.7-5.1,0c-1.7-1.4-3.6-2.9-5.8-3.7c-1.2-0.5-2.5-0.8-3.8-0.3
		c-0.5,0.2-0.8,0.5-0.7,1c0.3,1.4,0.4,3,0.9,4.4c1.2,3.5,0.7,3.1,0,2.9c-0.6-0.2-1.1-0.1-1.6,0c-1.9,0.4-3,0.6-5,1
		c0,1.1,0,2.3,0,3.4c0,3.9,0.3,7.8,1.3,11.6c1,4.2,2.7,8.2,5.5,11.6c1.6,2.2,3.6,3.8,5.9,5.4c0.5,0.3,0.8,0.3,1.3-0.1
		c1-0.7,9.8-6.6,9.9-6.7c0,0,0,0,0,0c1.6-0.8,2.6-0.5,2.6-0.5l0,0c1.5,0.4,3.1,0.4,4.6,0.4c2.4,0.1,4.7,0.1,7.1,0c1,0,2,0.1,3,0.4
		c1.1,0.4,2.4,0.7,3.6,0.9c0.6,0.1,1.2,0.1,1.8,0c0.6-0.2,0.9-0.6,1-1.3c0.2-0.7,0.3-0.8,0.8-0.8c1.2,0,2.3-0.8,2.8-2.5
		C57.1,40.8,57.2,39,55.9,37.6z"/>
	<path class="st0" d="M35.2,15.6c0.2,0,0.5-0.2,0.6-0.4c1.9-2.2,2.6-4.5,1.5-7.4c-0.9,2.9-2.7,5-4.8,7.1
		C33.5,15.2,34.4,15.4,35.2,15.6z"/>
</g>
</svg>
