<?xml version="1.0" encoding="utf-8"?>
<!-- Generator: Adobe Illustrator 24.0.2, SVG Export Plug-In . SVG Version: 6.00 Build 0)  -->
<svg version="1.1" id="Layer_1" xmlns="http://www.w3.org/2000/svg" xmlns:xlink="http://www.w3.org/1999/xlink" x="0px" y="0px"
	 viewBox="0 0 60 60" style="enable-background:new 0 0 60 60;" xml:space="preserve">
<style type="text/css">
	.st0{fill:#07A247;}
</style>
<g>
	<path class="st0" d="M55.4,28.4c-0.2-0.6-0.7-0.8-1.3-0.4c-0.1,0.1-0.3,0.2-0.4,0.3c-2.3,0-5.8-1.5-7.8-2.3
		c-1.4-0.6-2.9-1.4-4.1-2.4c-1.1-0.9-2-2.2-2.9-3.3c-1.3-1.5-2.7-2.9-4.4-3.9c-0.7-0.5-1-0.4-1.6,0.1c-0.1,0.1-0.2,0.3-0.3,0.2
		c-0.1-0.1-0.1-0.1,0-0.2c1.8-2.8,3.9-5,6.2-7.4c-5.6-1.3-10.3,0.4-14.4,4c-0.5,0.4-0.9,0.9-1.2,1.4c0,0,0,0,0,0
		c-2,1.8-4.1,0.8-6.4,1.3c-2.6,0.7-11,2.4-11.8,2.6c-0.5,0.1-0.6,0.4-0.7,0.9C4,22.8,4,26.5,4.6,30.1c1.5,9,5.4,16.7,12.8,22.4
		c0.6,0.5,1.2,1.2,1.8,1.2c0.6,0,1.2-0.7,1.8-1.2c2.6-2.2,5.2-4.4,7.9-6.8c0.8-0.7,1.7-1.2,3-1c0.4,0.1,0.9,0.1,1.3,0.2
		C34.6,45,36,45,37.5,45c1.2,0,2.7-0.5,3.6-1.1c2.8-1.7,4.7-3.6,7.1-6.2c0.6-0.7,1.3-1,2.2-1c0.2,0,0.4,0,0.6,0
		c1.8,0,2.7-0.6,3.3-2.4c0.5-1.4,0.8-2.9,1.2-4.4C55.6,29.5,55.5,28.9,55.4,28.4z"/>
	<path class="st0" d="M34.5,14.7c-0.1,0.1,0,0.5,0.1,0.6c0.8,0.7,1.7,1.4,2.5,2c0.1,0.1,0.4,0.1,0.5,0c1.6-1.4,3.3-2.8,5-4.4
		C39.5,11.5,36.5,12.3,34.5,14.7z"/>
</g>
</svg>
