<?xml version="1.0" encoding="utf-8"?>
<!-- Generator: Adobe Illustrator 24.0.2, SVG Export Plug-In . SVG Version: 6.00 Build 0)  -->
<svg version="1.1" id="Layer_1" xmlns="http://www.w3.org/2000/svg" xmlns:xlink="http://www.w3.org/1999/xlink" x="0px" y="0px"
	 viewBox="0 0 60 60" style="enable-background:new 0 0 60 60;" xml:space="preserve">
<style type="text/css">
	.st0{fill:#07A247;}
</style>
<g>
	<path class="st0" d="M36.9,42.3c0.4,0.9,1.2,1.3,2.2,1.2c1.7-0.1,3.3-0.5,4.6-1.6c1.7-1.5,1.9-3.5,1.5-5.5c-0.4-1.7-1-3.4-1.6-5.1
		c1,0,3.8-0.8,8.6,0.7c1.2,0.3,2.2,1,2.6,1.3c0.1-3.6-2.4-5.5-4.9-7.3c0.6-0.2,1.2-0.4,1.7-0.6c0.7-0.4,0.9-1.1,0.4-1.7
		c-0.7-0.9-1.3-1.9-1.2-3.2c0-0.7-0.4-1.2-1.1-1.3c-0.2,0-0.5-0.3-0.5-0.5c-0.1-0.6-0.1-1.1-0.2-1.7c-0.1-1.2-0.7-1.6-1.9-1.2
		c-0.7,0.3-1.3,0-1.6-0.8c-0.1-0.4-0.1-0.9-0.1-1.3c0-0.9,0-1.7-0.1-2.6c0-0.3-0.3-0.6-0.6-0.7c-0.2-0.1-0.7,0.1-0.8,0.3
		c-0.4,0.5-0.8,1.1-1.2,1.7c-0.2,0.3-0.5,0.7-0.9,1.2c-0.3-0.8-0.6-1.4-0.8-2.1c-0.3-1.3-0.5-2.7-0.9-4c-0.2-0.8-0.8-1.3-1.4-1.5
		c-0.6,1.3-1.1,2.5-1.8,3.8c-1.2-1.1-1.7-2.4-2-3.8c-0.2-0.6-0.3-1.3-0.4-1.9c-0.1-0.6-0.5-0.4-0.9-0.2c-1.2,0.5-2.2,1.3-3.1,2.2
		c-1.8,1.7-2.2,5-0.5,7.1c-0.8,0.1-1.1,0.2-2.3,0.4c-4.3,1.1-8.1,2.8-11.1,5.6c-3.1,2.7-5.6,5.4-8,8.8c-1.1,1.5-2.2,2.8-3.3,4.3
		C4.6,33.2,5,34,5.3,34.8c1.6,5.6,5.1,9.8,10.1,12.7c3.7,2.2,7.7,3.7,12,4.8c2.8,0.8,5.7,1.3,8.7,2c0.6,0.1,1.1,0.2,1.7,0.4
		c0.6,0.1,0.9-0.1,0.9-0.6c-0.1-1.7-0.8-3.7-1.5-6c-1-3.5-0.9-3.4-1-4.4C36,42.3,36.5,41.3,36.9,42.3z"/>
	<path class="st0" d="M50.1,28c-0.9-0.6-1.8-1.2-2.7-1.9c-0.1,0.1-0.1,0.2-0.2,0.2c0.7,0.9,1.3,2,2.7,1.9C49.9,28.2,50,28.1,50.1,28
		z"/>
</g>
</svg>
