<?xml version="1.0" encoding="utf-8"?>
<!-- Generator: Adobe Illustrator 23.0.3, SVG Export Plug-In . SVG Version: 6.00 Build 0)  -->
<svg version="1.1" id="Layer_1" xmlns="http://www.w3.org/2000/svg" xmlns:xlink="http://www.w3.org/1999/xlink" x="0px" y="0px"
	 viewBox="0 0 400 94" style="enable-background:new 0 0 400 94;" xml:space="preserve">
<style type="text/css">
	.st0{fill:#07A247;}
	.st1{fill:#FFFFFF;}
</style>
<path class="st0" d="M6.3,71.7v-30c0-4.6,1.5-8.2,4.4-10.9s7-4.1,12.2-4.1h0.5c3.1,0,5.9,0.7,8.2,2.1c2.3,1.5,4.1,3.1,5.3,5.3
	s1.8,4.4,1.8,6.5c0,3.1-1,5.6-3,7.1c1.9,1,3.4,2.5,4.5,4.6s1.6,4.2,1.6,6.5c0,2.2-0.5,4.2-1.3,6.2c-1,1.9-2.3,3.5-4.1,4.7
	s-3.9,1.8-6.3,1.8h-7.9V60c1.6,0,2.9-0.4,3.8-0.8c0.8-0.6,1.3-1.2,1.3-2.1c0-1-0.5-1.8-1.3-2.5c-0.8-0.8-1.9-1.2-3.1-1.2h-0.6v-9.2
	c0.8,0,1.6-0.2,2.1-0.8s0.7-1.2,0.7-1.9c0-0.6-0.2-1.2-0.6-1.8s-1-0.8-1.6-0.8c-0.8,0-1.5,0.2-1.7,0.6c-0.4,0.5-0.6,1-0.7,1.8
	c-0.1,0.7-0.1,1.9-0.1,3.6v27L6.3,71.7L6.3,71.7z"/>
<path class="st0" d="M73,71.7h-7.7c-4.5,0-8.4-1-11.6-3c-3.1-2.1-5.6-4.7-7.1-8c-1.6-3.3-2.4-6.9-2.4-10.7c0-2.9,0.5-5.7,1.5-8.4
	c1-2.8,2.4-5.2,4.2-7.4c1.9-2.2,4.2-4,7-5.2c2.8-1.3,5.9-1.9,9.3-1.9H73v11.5h-4.5c-2.2,0-4.2,0.5-6.2,1.6c-1.9,1-3,2.3-3.3,4h13.8
	v10.4H59.1c0.1,0.7,0.5,1.5,1.2,2.3c0.6,0.8,1.5,1.5,2.4,2.1c1,0.5,2.2,0.8,3.4,0.8H73V71.7z"/>
<path class="st0" d="M82.4,71.7v-32h-7.5V27.1h28.9v12.6h-7.5v32H82.4z"/>
<path class="st0" d="M135.5,44.8c1.9,1.1,3.4,2.8,4.5,5c1.1,2.3,1.6,4.7,1.6,7.3c0,2.5-0.5,4.8-1.5,7.1c-1,2.3-2.3,4.1-4.1,5.4
	s-3.9,2.1-6.3,2.1h-23.8v-30c0-4.6,1.5-8.2,4.4-10.9s7-4.1,12.2-4.1h16.3v11h-16.2c-1.2,0-1.8,0.5-2.2,1.6c-0.2,1.1-0.4,2.9-0.4,5.4
	v14.8h1.9c1.7,0,2.9-0.2,3.8-0.7c0.8-0.5,1.3-1.2,1.3-1.9s-0.5-1.5-1.3-2.1c-0.8-0.7-1.9-1.1-3.1-1.1H122v-9.4l1.7-0.6l2.5-0.5
	l3.6,0.5L135.5,44.8z"/>
<path class="st0" d="M181,34.3v37.4h-13.8V53.5l-8.7,12.6v5.7H144V27.1h14v17.8l8.4-12.8v-4.8H181V34.3z"/>
<path class="st0" d="M267.8,71.7V59.2c0.1,0,0.4,0,0.8,0.1s0.7,0.1,1,0.1c1.5,0,2.9-0.4,4.5-1.1c1.5-0.7,2.8-1.8,3.6-3.1
	c1-1.3,1.5-2.9,1.5-4.7v-0.8c-0.1-2.2-0.7-4-1.9-5.3c-1.1-1.3-2.5-2.3-4.2-2.9c-1.7-0.6-3.4-0.8-5.2-0.8V27.1h4
	c1.8,0,3.8,0.4,5.6,1.1c1.9,0.7,3.6,1.7,5.1,2.9s2.5,2.3,3.3,3.5c1.2-2.4,3.3-4.4,5.9-5.6c2.7-1.3,5.2-1.9,7.4-1.9h3.9v13.6H302
	c-2.1,0-3.8,0.4-5.2,1.2c-1.5,0.8-2.4,1.9-3.1,3.3c-0.6,1.3-1,2.7-1,4c0,2.3,0.4,4.2,1.1,5.7s1.9,2.4,3.4,3.1
	c1.6,0.7,3.5,1.1,5.8,1.3v12.5h-5c-3,0-5.3-0.4-7-1.2c-1.6-0.8-3.5-2.4-5.6-5c-1.3,1.6-2.7,2.8-4,3.6c-1.3,0.8-2.7,1.6-4,1.9
	c-1.5,0.4-2.9,0.6-4.6,0.6H267.8L267.8,71.7z"/>
<path class="st0" d="M342.3,34.3v37.4h-13.8V53.5l-8.6,12.6v5.7h-14.4V27.1h13.9v17.8l8.4-12.8v-4.8h14.5V34.3L342.3,34.3z"/>
<path class="st0" d="M344.6,71.7l2.9-37.4c0-1.6,0.6-2.9,1.5-4.1c1-1.2,2.2-2.2,3.6-2.8c1.5-0.6,2.9-1,4.5-1c2.1,0,4,0.6,5.7,1.8
	c1.7,1.2,2.8,2.9,3.3,5.1l3.5,14.6l4-15.9c0.4-1.7,1.5-3,3.3-4s3.8-1.5,5.8-1.5c2.4,0,4.5,0.7,6.3,2.2s2.8,3.6,3,6.5l3,36.4h-13.6
	l-1.6-26l-5.4,22.9c-0.2,1.2-0.8,2.2-1.7,2.8c-0.8,0.7-1.9,1-3,1c-1,0-1.8-0.2-2.8-0.8c-0.8-0.6-1.5-1.3-1.6-2.3l-5.8-23.4l-1.7,26
	L344.6,71.7L344.6,71.7L344.6,71.7z"/>
<g>
	<path class="st0" d="M259.5,47.8c0,18.8-15.3,34.1-34.1,34.1s-34.1-15.3-34.1-34.1s15.3-34.1,34.1-34.1S259.5,29,259.5,47.8z
		 M225.5,7.9c-22,0-39.9,17.9-39.9,39.9s17.9,39.9,39.9,39.9s39.9-17.9,39.9-39.9C265.3,25.8,247.4,7.9,225.5,7.9z"/>
</g>
<g>
	<g>
		<path d="M226.4,62.9l0.1,0.2c0,0.1,0.5,2.4,1.3,3.5c2.4,3.5,7.5,4.2,11.1,1.7c1.8-1.3,3.1-3.1,3.5-5.3c0.4-2.1-0.1-4-1.2-5.7
			c-0.8-1.2-3.3-2.5-3.4-2.7l-0.2-0.1L226.4,62.9z M237.6,55.8c0.6,0.4,2.2,1.3,2.8,2.2c0.7,1.1,1.2,2.4,1.2,3.8
			c0,0.4,0,0.8-0.1,1.2c-0.4,1.9-1.5,3.6-3.1,4.7c-3.3,2.3-7.7,1.6-9.9-1.6c-0.5-0.7-1-2.3-1.1-2.9
			C227.8,62.9,237.1,56.2,237.6,55.8z"/>
	</g>
	<g>
		<path d="M203.8,42.9c-2.1,1.1-3.4,2.8-4.1,4.8c-0.6,1.9-0.4,4,0.6,5.7c0.7,1.3,2.9,2.9,3,3l0.2,0.1l12.1-6.9v-0.2
			c0-0.1-0.2-2.4-0.8-3.6C212.7,42,207.8,40.7,203.8,42.9z M201.2,53c-0.5-1-0.7-2.1-0.7-3c0-0.6,0.1-1.3,0.2-1.9
			c0.6-1.8,1.8-3.4,3.6-4.4c3.5-1.8,7.9-0.7,9.7,2.7c0.5,0.8,0.7,2.4,0.7,3c-0.5,0.2-10.5,6.1-11,6.3C203.2,55.2,201.7,54,201.2,53z
			"/>
	</g>
	<g>
		<path d="M225,24.4c-1.8,1.3-3,3.3-3.4,5.3s0.1,4,1.3,5.6c0.8,1.2,3.3,2.5,3.4,2.5l0.2,0.1l11-8.5l-0.1-0.2c0-0.1-0.6-2.4-1.3-3.5
			C233.8,22.6,228.7,21.9,225,24.4z M223.7,35c-0.8-1.1-1.2-2.4-1.2-3.9c0-0.4,0-0.7,0.1-1.1c0.4-1.9,1.3-3.6,3-4.7
			c3.3-2.3,7.7-1.7,9.9,1.3c0.5,0.7,1,2.3,1.1,2.9c-0.5,0.4-9.7,7.4-10,7.7C226,36.8,224.3,35.8,223.7,35z"/>
	</g>
	<g>
		<path d="M245.1,30.1c-1.5,0.1-3.6,1.2-3.8,1.3l-0.2,0.1l1,12.8l0.2,0.1c0.1,0,2.2,0.7,3.4,0.7c1.9-0.1,3.6-0.8,5-2.3
			c1.3-1.5,2.1-3.5,1.9-5.6C252.5,33.2,249.1,29.9,245.1,30.1z M245.3,31c3.5-0.1,6.4,2.7,6.7,6.3c0.1,1.8-0.5,3.5-1.7,4.8
			c-1.1,1.2-2.7,1.9-4.4,2.1c-0.8,0-2.2-0.4-2.8-0.6c0-0.6-0.8-11-0.8-11.6C242.6,31.8,244.2,31.1,245.3,31z"/>
	</g>
	<g>
		<path d="M201.9,61.1c-0.8,1.8-1,4-0.2,5.9c0.7,2.1,2.3,3.8,4.5,4.7c4.1,1.9,9.1,0.2,10.9-3.8c0.7-1.6,0.8-3.3,0.2-4.7
			c-0.7-1.9-2.5-3.8-5-4.8l0,0C207.7,56.4,203.6,57.4,201.9,61.1z M206.5,70.9c-1.8-0.8-3.3-2.3-4-4.2c-0.6-1.7-0.6-3.6,0.1-5.2
			c1.5-3.1,5.1-4.1,9.2-2.3c2.3,1.1,3.9,2.5,4.5,4.4c0.2,0.6,0.4,1.1,0.4,1.7c0,0.7-0.1,1.6-0.5,2.3
			C214.5,71.1,210.1,72.6,206.5,70.9z"/>
	</g>
	<path class="st1" d="M211.1,52.2c0.8-0.5,1.8-0.4,2.1,0.1c0.2,0.5-0.4,1.2-1.2,1.6s-1.8,0.4-2.1-0.1
		C209.7,53.3,210.1,52.7,211.1,52.2z"/>
	<path class="st1" d="M226.9,47.5c0.8-0.4,1.8-0.4,2.1,0.1c0.2,0.5-0.4,1.2-1.2,1.6c-0.8,0.5-1.8,0.4-2.1-0.1
		C225.4,48.5,226,47.8,226.9,47.5z"/>
	<path class="st1" d="M234.1,36.7c-0.5,0.8-1.2,1.3-1.7,1.1s-0.5-1.1,0-2.1c0.5-0.8,1.2-1.3,1.7-1.1S234.6,35.7,234.1,36.7z"/>
	<path d="M226.9,63.1l10.7-7.9c0,0,0,0,0.1,0c0.2-3.1-1.2-6.4-4.1-8.2c3.4,0.7,6.8-0.5,9-3.1l0,0l-1-12c-0.6-0.5-1.2-1-1.9-1.5
		c-0.8-0.5-1.8-0.7-2.7-0.8l-10.3,7.9c-0.4,3.3,1.2,6.4,4.1,8.2c-3.9-0.8-8.1,0.8-9.9,4.6c-0.4,0.8-0.6,1.6-0.8,2.4
		c-0.8-1.3-1.9-2.4-3.4-3.1c-0.5-0.2-0.8-0.4-1.3-0.5c0,0.1,0,0.1,0,0.1l-11.5,6.7c-0.2,1.1-0.2,2.3,0,3.4c2.1-1.9,5.2-2.1,8.4-0.6
		c3,1.3,5.1,3.8,5.1,6.4c1.3-0.8,2.5-1.9,3.3-3.5c0.4-0.8,0.6-1.6,0.8-2.4c0.8,1.3,1.9,2.4,3.4,3.1
		C225.4,62.8,226.1,63.1,226.9,63.1C226.9,63.2,226.9,63.1,226.9,63.1z"/>
</g>
</svg>
