<?xml version="1.0" encoding="utf-8"?>
<!-- Generator: Adobe Illustrator 22.0.1, SVG Export Plug-In . SVG Version: 6.00 Build 0)  -->
<svg version="1.1" id="Layer_1" xmlns="http://www.w3.org/2000/svg" xmlns:xlink="http://www.w3.org/1999/xlink" x="0px" y="0px"
	 viewBox="0 0 39.3 39" style="enable-background:new 0 0 39.3 39;" xml:space="preserve">
<style type="text/css">
	.st0{fill:#FFFFFF;}
	.st1{fill:#07A247;}
	.st2{fill:#010101;}
</style>
<circle class="st0" cx="19.5" cy="19.1" r="16.8"/>
<g>
	<path class="st1" d="M35.3,19.5c0,8.7-7.1,15.8-15.8,15.8S3.7,28.2,3.7,19.5S10.8,3.7,19.5,3.7S35.3,10.8,35.3,19.5z M19.5,1
		C9.3,1,1,9.3,1,19.5S9.3,38,19.5,38S38,29.7,38,19.5C37.9,9.3,29.6,1,19.5,1z"/>
</g>
<g>
	<g>
		<path class="st2" d="M19.9,26.5l0.1,0.1c0,0.1,0.2,1.1,0.6,1.6c1.1,1.6,3.5,2,5.2,0.8c0.8-0.6,1.5-1.5,1.6-2.5
			c0.2-1-0.1-1.8-0.6-2.6c-0.4-0.6-1.5-1.2-1.6-1.2l-0.1-0.1L19.9,26.5z M25.1,23.2c0.3,0.2,1,0.6,1.3,1c0.3,0.5,0.6,1.1,0.6,1.7
			c0,0.2,0,0.4-0.1,0.6c-0.2,0.9-0.7,1.7-1.5,2.2c-1.5,1.1-3.6,0.7-4.6-0.7c-0.2-0.3-0.4-1.1-0.5-1.3C20.6,26.5,24.9,23.4,25.1,23.2
			z"/>
	</g>
	<g>
		<path class="st2" d="M9.5,17.2c-1,0.5-1.6,1.3-1.9,2.2c-0.3,0.9-0.2,1.8,0.3,2.6c0.3,0.6,1.3,1.3,1.4,1.4l0.1,0.1l5.6-3.2v-0.1
			c0-0.1-0.1-1.1-0.4-1.7C13.6,16.8,11.3,16.2,9.5,17.2z M8.2,21.9c-0.2-0.4-0.3-1-0.3-1.4c0-0.3,0.1-0.6,0.1-0.9
			c0.3-0.8,0.8-1.6,1.7-2c1.6-0.8,3.6-0.3,4.5,1.2c0.2,0.4,0.3,1.1,0.3,1.4c-0.2,0.1-4.9,2.8-5.1,2.9C9.2,22.9,8.5,22.4,8.2,21.9z"
			/>
	</g>
	<g>
		<path class="st2" d="M19.3,8.7c-0.8,0.6-1.4,1.5-1.6,2.5s0.1,1.8,0.6,2.6c0.4,0.6,1.5,1.2,1.6,1.2l0.1,0l5.1-3.9L25,10.9
			c0-0.1-0.3-1.1-0.6-1.6C23.3,7.8,21,7.5,19.3,8.7z M18.7,13.6c-0.4-0.5-0.6-1.1-0.6-1.8c0-0.2,0-0.3,0.1-0.5
			c0.2-0.9,0.6-1.7,1.4-2.2c1.5-1.1,3.6-0.8,4.6,0.6c0.2,0.3,0.4,1.1,0.5,1.3c-0.2,0.2-4.5,3.4-4.7,3.6C19.7,14.4,18.9,14,18.7,13.6
			z"/>
	</g>
	<g>
		<path class="st2" d="M28.6,11.3c-0.7,0.1-1.7,0.6-1.7,0.6L26.7,12l0.4,5.9l0.1,0.1c0.1,0,1,0.3,1.6,0.3c0.9-0.1,1.7-0.4,2.3-1.1
			c0.6-0.7,1-1.6,0.9-2.6C32,12.7,30.4,11.2,28.6,11.3z M28.6,11.7c1.6-0.1,3,1.2,3.1,2.9c0.1,0.8-0.2,1.6-0.8,2.2
			c-0.5,0.6-1.2,0.9-2,1c-0.4,0-1-0.2-1.3-0.3c0-0.3-0.4-5.1-0.4-5.4C27.4,12.1,28.1,11.8,28.6,11.7z"/>
	</g>
	<g>
		<path class="st2" d="M8.6,25.7c-0.4,0.8-0.4,1.8-0.1,2.7c0.3,1,1.1,1.7,2.1,2.2c1.9,0.9,4.2,0.1,5-1.7c0.3-0.7,0.4-1.5,0.1-2.2
			c-0.3-0.9-1.2-1.7-2.3-2.2l0,0C11.3,23.5,9.4,23.9,8.6,25.7z M10.7,30.2c-0.8-0.4-1.5-1.1-1.8-2c-0.3-0.8-0.3-1.7,0.1-2.4
			c0.7-1.5,2.4-1.9,4.3-1.1c1.1,0.5,1.8,1.2,2.1,2c0.1,0.3,0.2,0.5,0.2,0.8s-0.1,0.7-0.2,1.1C14.4,30.3,12.4,31,10.7,30.2z"/>
	</g>
	<path class="st0" d="M12.8,21.5c0.4-0.2,0.8-0.2,1,0.1c0.1,0.2-0.2,0.6-0.6,0.7s-0.8,0.2-1-0.1C12.2,22,12.4,21.7,12.8,21.5z"/>
	<path class="st0" d="M20.1,19.3c0.4-0.2,0.8-0.2,1,0.1c0.1,0.2-0.2,0.6-0.6,0.7c-0.4,0.2-0.8,0.2-1-0.1
		C19.4,19.8,19.7,19.5,20.1,19.3z"/>
	<path class="st0" d="M23.5,14.3c-0.2,0.4-0.6,0.6-0.8,0.5c-0.2-0.1-0.2-0.5,0-1c0.2-0.4,0.6-0.6,0.8-0.5S23.7,13.9,23.5,14.3z"/>
	<path class="st2" d="M20.1,26.6L25,23c0,0,0,0,0.1,0c0.1-1.5-0.6-3-1.9-3.8c1.6,0.3,3.1-0.2,4.1-1.5l0,0l-0.4-5.5
		c-0.3-0.2-0.6-0.4-0.9-0.7c-0.4-0.2-0.8-0.3-1.2-0.4L20,14.7c-0.2,1.5,0.6,3,1.9,3.8c-1.8-0.4-3.8,0.4-4.6,2.1
		c-0.2,0.4-0.3,0.7-0.4,1.1c-0.4-0.6-0.9-1.1-1.6-1.5c-0.2-0.1-0.4-0.2-0.6-0.2c0,0.1,0,0.1,0,0.1l-5.3,3.1c-0.1,0.5-0.1,1.1,0,1.6
		c1-0.9,2.4-1,3.9-0.3c1.4,0.6,2.4,1.7,2.4,3c0.6-0.4,1.2-0.9,1.5-1.6c0.2-0.4,0.3-0.7,0.4-1.1c0.4,0.6,0.9,1.1,1.6,1.5
		C19.4,26.5,19.8,26.6,20.1,26.6L20.1,26.6z"/>
</g>
</svg>
