<?xml version="1.0" encoding="utf-8"?>
<!-- Generator: Adobe Illustrator 23.0.3, SVG Export Plug-In . SVG Version: 6.00 Build 0)  -->
<svg version="1.1" id="Layer_1" xmlns="http://www.w3.org/2000/svg" xmlns:xlink="http://www.w3.org/1999/xlink" x="0px" y="0px"
	 viewBox="0 0 96 48" style="enable-background:new 0 0 96 48;" xml:space="preserve">
<style type="text/css">
	.st0{fill:#798D92;}
</style>
<path class="st0" d="M42.5,39.9c-4.1-4.1-6.2-6.2-10.3-10.3c0-0.1-0.1-0.1-0.2-0.2c0.1-0.1,0.1-0.1,0.1-0.1c0.1,0,0.1-0.1,0.1-0.1
	c2.6-3.4,3.6-7.3,2.9-11.5c-0.6-3.9-2.6-7.1-5.8-9.4c-2-1.5-4.3-2.4-6.8-2.7c-0.3,0-0.7-0.1-1-0.1c-0.6,0-1.1,0-1.6,0
	c-0.3,0-0.7,0.1-1,0.1c-3.6,0.4-6.6,2-9,4.6c-2,2.1-3.2,4.7-3.7,7.4c0,0.5-0.1,0.9-0.1,1.3C6,19,6,19,6,19.1c0,0.6,0,1.1,0,1.6
	c0,0.1,0,0.1,0,0.2c0.1,0.8,0.1,1.5,0.3,2.3c1.7,7.3,8.5,12.1,16,11.3c2.8-0.3,5.2-1.3,7.4-3c0.1,0,0.1,0,0.2-0.1
	c0,0.1,0,0.1,0.1,0.2c4,4,6.4,6.4,10.4,10.4c0,0,0,0,0,0c0,0,0,0,0,0c0,0,0,0,0,0c0.3,0.2,0.6,0.4,1,0.4c0.8,0,1.5-0.7,1.5-1.5
	C43,40.6,42.8,40.2,42.5,39.9z M20.7,31.5c-6.3,0-11.5-5.1-11.5-11.4c0.1-6.3,5.1-11.4,11.5-11.4c6.3,0,11.5,5.1,11.5,11.4
	C32.1,26.3,27,31.5,20.7,31.5z"/>
<g>
	<path class="st0" d="M87.4,11.4L59.9,38.9c-0.6,0.6-1.6,0.6-2.2,0l-0.1-0.1c-0.6-0.6-0.6-1.6,0-2.2L85.1,9.1c0.6-0.6,1.6-0.6,2.2,0
		l0.1,0.1C88,9.8,88,10.8,87.4,11.4z"/>
	<path class="st0" d="M59.9,9.2l27.4,27.4c0.6,0.6,0.6,1.6,0,2.3l0,0c-0.6,0.6-1.6,0.6-2.3,0L57.7,11.4c-0.6-0.6-0.6-1.6,0-2.3v0
		C58.3,8.5,59.3,8.5,59.9,9.2z"/>
</g>
</svg>
