<?xml version="1.0" encoding="utf-8"?>
<!-- Generator: Adobe Illustrator 23.0.3, SVG Export Plug-In . SVG Version: 6.00 Build 0)  -->
<svg version="1.1" id="Layer_1" xmlns="http://www.w3.org/2000/svg" xmlns:xlink="http://www.w3.org/1999/xlink" x="0px" y="0px"
	 viewBox="0 0 33.1 21.7" style="enable-background:new 0 0 33.1 21.7;" xml:space="preserve">
<style type="text/css">
	.st0{fill:#646C79;}
</style>
<g>
	<path class="st0" d="M1,10.8C1.5,10.2,2,9.6,2.5,9c1.9-2.2,4-4.1,6.5-5.6c1.9-1.1,3.9-1.9,6-2.3c0.7-0.1,1.5-0.1,2.2-0.1
		c2.5,0.1,4.8,1,6.9,2.2c2.1,1.2,3.9,2.8,5.6,4.6c0.8,0.9,1.6,1.8,2.3,2.8c0,0,0.1,0.1,0.1,0.1c-0.4,0.5-0.7,1-1.1,1.4
		c-1.6,1.9-3.3,3.6-5.3,5c-1.6,1.2-3.3,2.1-5.2,2.7c-1.4,0.5-2.8,0.6-4.3,0.6c-2,0-3.8-0.6-5.5-1.4c-2.3-1.1-4.3-2.6-6.1-4.3
		c-1.3-1.2-2.5-2.6-3.6-4C1.1,10.9,1,10.9,1,10.8C1,10.9,1,10.9,1,10.8z M16.7,18.8c0.8,0,1.6-0.1,2.5-0.3c1.6-0.4,3-1.1,4.3-1.9
		c2.3-1.5,4.3-3.3,6.1-5.4c0.3-0.3,0.3-0.2,0-0.6c-1.3-1.6-2.8-3-4.5-4.3c-1.5-1.2-3.1-2.1-5-2.7c-1.9-0.6-3.9-0.8-5.8-0.3
		c-1.8,0.4-3.4,1.2-4.9,2.2c-2.2,1.4-4,3.2-5.7,5.1c-0.3,0.4-0.3,0.3,0,0.7c0.8,1,1.8,1.9,2.7,2.8c1.5,1.4,3.2,2.6,5.1,3.5
		C13.1,18.3,14.8,18.8,16.7,18.8z"/>
	<path class="st0" d="M16.6,5.6c3.2-0.1,5.2,2.7,5.3,5c0.1,3.4-2.6,5.6-5.3,5.6c-3,0-5.3-2.4-5.3-5.4C11.3,8.1,13.7,5.4,16.6,5.6z"
		/>
</g>
</svg>
