<?xml version="1.0" encoding="utf-8"?>
<!-- Generator: Adobe Illustrator 24.1.1, SVG Export Plug-In . SVG Version: 6.00 Build 0)  -->
<svg version="1.1" id="Layer_1" xmlns="http://www.w3.org/2000/svg" xmlns:xlink="http://www.w3.org/1999/xlink" x="0px" y="0px"
	 viewBox="0 0 80 80" style="enable-background:new 0 0 80 80;" xml:space="preserve">
<style type="text/css">
	.st0{fill:#419B46;}
</style>
<g>
	<path class="st0" d="M59.7,48.9c0-4.8-1.6-9.2-4.3-12.8c-0.2-0.2-0.4-0.3-0.8-0.3c-0.6,0-1,0.4-1,1c0,0.3,0.2,0.6,0.2,0.6
		c2.4,3.2,3.9,7.2,3.9,11.6c0,10.7-8.7,19.4-19.4,19.4h0c-10.7,0-19.4-8.7-19.4-19.4c0-0.5,0-1.1,0.1-1.6l7.9,7.9
		c0.4,0.4,0.9,0.6,1.4,0.6c0.5,0,1-0.2,1.4-0.6l1.9-1.9c0.8-0.8,0.8-2,0-2.8L18,36.9c-0.8-0.8-2.1-0.8-2.8,0l-1.9,1.9
		c-0.4,0.4-0.6,0.9-0.6,1.4c0,0.5,0.2,1,0.6,1.4l4,4c-0.2,1.1-0.3,2.2-0.3,3.4c0,8.6,5.1,16,12.4,19.4h-6.1c-0.6,0-1,0.4-1,1
		c0,0.6,0.4,1,1,1h15.1c0,0,0,0,0,0s0,0,0,0h15.4c0.6,0,1-0.4,1-1c0-0.6-0.4-1-1-1h-6.4C54.6,64.9,59.7,57.5,59.7,48.9z M16.6,38.3
		L30.2,52l-1.9,1.9L14.7,40.2L16.6,38.3z"/>
	<circle class="st0" cx="45.9" cy="32" r="1.5"/>
	<path class="st0" d="M60,15.3l-6.8-6.7c-0.4-0.4-1-0.4-1.4,0s-0.4,1,0,1.4l0.7,0.7l-1.7,1.8l-0.7-0.7c-0.8-0.8-2.1-0.8-2.8,0
		L26.4,33c-0.8,0.8-0.8,2.1,0,2.8l0.7,0.7l-1.6,1.6c-0.8,0.8-0.8,2.1,0,2.8l2.6,2.6c0.8,0.8,2.1,0.8,2.8,0l1.6-1.6l0.7,0.7
		c0.8,0.8,2.1,0.8,2.8,0l5.6-5.7c1.1,1,2.6,1.6,4.2,1.6c0.5,0,1-0.1,1.5-0.2c3.1,2.6,5.1,6.5,5.1,10.8c0,7.8-6.3,14.1-14.1,14.1
		c-4,0-7.5-1.7-10-4.2l0,0c-0.2-0.2-0.4-0.3-0.7-0.3c-0.6,0-1,0.4-1,1c0,0.3,0.1,0.6,0.3,0.7c2.9,2.9,6.9,4.7,11.4,4.7
		c8.9,0,16.1-7.2,16.1-16.1c0-4.6-2-8.8-5.1-11.7c1.7-1.2,2.9-3.1,2.9-5.4c0-1.7-0.6-3.2-1.7-4.3l6.3-6.4c0.8-0.8,0.8-2.1,0-2.8
		l-0.7-0.7l1.7-1.8l0.7,0.7c0.4,0.4,1,0.4,1.4,0C60.4,16.3,60.4,15.7,60,15.3z M29.5,42.1l-2.6-2.6l1.6-1.6l0,0l2.6,2.6L29.5,42.1z
		 M45.9,36.4c-2.4,0-4.4-2-4.4-4.4s2-4.4,4.4-4.4s4.4,2,4.4,4.4S48.3,36.4,45.9,36.4z M49.1,26.4c-0.9-0.5-2-0.9-3.2-0.9
		c-3.5,0-6.4,2.9-6.4,6.4c0,1.2,0.3,2.3,0.9,3.3l-5.8,5.9l-2.1-2.1l-1.3-1.3l-3.4-3.3l20.9-21.2l6.8,6.7L49.1,26.4z M54.7,16.4
		l-2.5-2.5l1.7-1.8l2.5,2.5L54.7,16.4z"/>
</g>
</svg>
