<?xml version="1.0" encoding="utf-8"?>
<!-- Generator: Adobe Illustrator 24.1.1, SVG Export Plug-In . SVG Version: 6.00 Build 0)  -->
<svg version="1.1" id="Layer_1" xmlns="http://www.w3.org/2000/svg" xmlns:xlink="http://www.w3.org/1999/xlink" x="0px" y="0px"
	 viewBox="0 0 80 80" style="enable-background:new 0 0 80 80;" xml:space="preserve">
<style type="text/css">
	.st0{fill:#419B46;}
</style>
<g>
	<path class="st0" d="M13.7,70.8c-0.6,0-1-0.5-1-1l-0.1-19.3c0-0.3,0.1-0.5,0.3-0.7c0.2-0.2,0.4-0.3,0.7-0.3l8.8,0c0.6,0,1,0.5,1,1
		l0,2l0.1-0.1c2.1-1.2,4.6-1.8,7-1.8c2.1,0,4.3,0.5,6.2,1.4l0.8,0.4c1.1,0.5,2.4,0.8,3.7,0.8l8,0c2.5,0,4.8,1.3,6.1,3.5l0,0.1
		l8.6-4.4c0.8-0.4,1.7-0.7,2.6-0.7c1.9,0,3.7,1,4.7,2.7c0.3,0.5,0.2,1.1-0.3,1.4L51.8,69.1c0,0-0.1,0.1-0.1,0.1
		c-1.9,1-4,1.5-6.1,1.5c-0.2,0-0.3,0-0.5,0c-0.8,0-1.7-0.1-2.5-0.2l-13.8-3.4c-0.3-0.1-0.6-0.1-1-0.1c-0.7,0-1.4,0.2-2,0.5l-2.3,1.3
		l0,1c0,0.6-0.4,1-1,1L13.7,70.8z M14.6,51.5l0.1,17.3l6.8,0l-0.1-17.3L14.6,51.5z M27.8,64.9c0.5,0,1,0.1,1.5,0.2L43,68.5
		c0.7,0.1,1.4,0.2,2.2,0.2c1.9,0,3.8-0.4,5.6-1.3l18.4-12.8L69,54.6c-0.6-0.6-1.4-0.9-2.3-0.9c-0.6,0-1.2,0.1-1.7,0.4l-8.9,4.5
		l0,0.1c0.1,0.5,0.1,0.9,0.1,1.4c0,0.6-0.4,1-1,1l-13.2,0c-0.6,0-1-0.5-1-1c0-0.3,0.1-0.5,0.3-0.7c0.2-0.2,0.4-0.3,0.7-0.3l12.1,0
		l0-0.1c-0.5-2.2-2.5-3.8-4.8-3.8l-8,0c-1.6,0-3.2-0.4-4.6-1l-0.8-0.4c-1.7-0.8-3.5-1.2-5.3-1.2c-2.6,0-5,0.8-7.1,2.3v11.6l1.3-0.7
		C25.7,65.2,26.7,64.9,27.8,64.9z"/>
</g>
<g>
	<path class="st0" d="M48.9,13.8H47V11h0.9c0.6,0,1-0.4,1-1V9.3c0-0.6-0.4-1-1-1H36.3c-0.6,0-1,0.4-1,1V10c0,0.6,0.4,1,1,1h0.9v2.7
		h-1.9c-1.2,0-2.2,1-2.2,2.2v28.8c0,1.2,1,2.2,2.2,2.2h13.7c1.2,0,2.2-1,2.2-2.2V15.9C51.1,14.7,50.1,13.8,48.9,13.8z M39.4,11h5.5
		v2.7h-5.5V11z M48.9,44.7H35.3V27.2h7.3c0.6,0,1-0.4,1-1V26c0-0.6-0.4-1-1-1h-7.3v-9.1h13.7V44.7z"/>
	<path class="st0" d="M45.9,27.2h0.2c0.6,0,1-0.4,1-1V26c0-0.6-0.4-1-1-1h-0.2c-0.6,0-1,0.4-1,1v0.2C44.9,26.7,45.3,27.2,45.9,27.2z
		"/>
</g>
</svg>
