<?xml version="1.0" encoding="utf-8"?>
<!-- Generator: Adobe Illustrator 24.1.1, SVG Export Plug-In . SVG Version: 6.00 Build 0)  -->
<svg version="1.1" id="Layer_1" xmlns="http://www.w3.org/2000/svg" xmlns:xlink="http://www.w3.org/1999/xlink" x="0px" y="0px"
	 viewBox="0 0 80 80" style="enable-background:new 0 0 80 80;" xml:space="preserve">
<style type="text/css">
	.st0{fill:#419B46;}
</style>
<path class="st0" d="M43.8,70.3l-0.3,0h-4.3v0H26.9c-3.5,0-6.3-2.8-6.3-6.3V38.4c0-1.4,0.4-2.7,1.3-3.8l6.7-8.9v-4.1l-0.2-0.1
	c-1.5-0.5-2.4-1.9-2.4-3.5V12c0-2,1.6-3.7,3.7-3.7h23.8c2,0,3.7,1.6,3.7,3.7v6.1c0,1.5-1,2.9-2.4,3.5l-0.2,0.1v4.1l6.7,8.9
	c0.8,1.1,1.3,2.4,1.3,3.8l0,25.6c0,3.5-2.8,6.3-6.3,6.3H43.8z M22.7,64c0,2.4,1.9,4.3,4.3,4.3H56c2.4,0,4.3-1.9,4.3-4.3v-1.6H22.7
	V64z M22.7,60.3h37.7l0-0.3c0,0,0-17,0-19.5l0-0.3H22.7V60.3z M30.6,26c0,0.2-0.1,0.4-0.2,0.6l-6.9,9.2c-0.5,0.6-0.7,1.3-0.8,2.1
	l0,0.3h37.7l0-0.3c-0.1-0.8-0.4-1.5-0.8-2.1l-6.6-8.8H40.2c-0.6,0-1-0.5-1-1s0.5-1,1-1h12.2v-3.3H30.6V26z M29.6,10.4
	c-0.9,0-1.6,0.7-1.6,1.6v6.1c0,0.9,0.7,1.6,1.6,1.6h23.8c0.9,0,1.6-0.7,1.6-1.6V12c0-0.9-0.7-1.6-1.6-1.6H29.6z"/>
</svg>
