<?xml version="1.0" encoding="utf-8"?>
<!-- Generator: Adobe Illustrator 24.1.1, SVG Export Plug-In . SVG Version: 6.00 Build 0)  -->
<svg version="1.1" id="Layer_1" xmlns="http://www.w3.org/2000/svg" xmlns:xlink="http://www.w3.org/1999/xlink" x="0px" y="0px"
	 viewBox="0 0 80 80" style="enable-background:new 0 0 80 80;" xml:space="preserve">
<style type="text/css">
	.st0{fill:#419B46;}
</style>
<g>
	<g>
		<path class="st0" d="M21.8,70.2c-0.4,0-0.7-0.2-0.8-0.5L9.3,48.5c-0.1-0.1-0.1-0.3-0.1-0.5c0-0.5,0.4-1,1-1h8.6V11.9
			c0-0.5,0.4-1,1-1h3.3v-0.1c0-2.3,1.9-4.1,4.1-4.1s4.1,1.9,4.1,4.1V11h25.6c0.5,0,1,0.4,1,1v3.3h3.3c0.5,0,1,0.4,1,1v30.9h9.6
			c0.3,0,0.6,0.2,0.8,0.4c0.2,0.3,0.2,0.6,0.1,0.9l-7.4,21.2l0,0.1c-0.1,0.4-0.5,0.6-0.9,0.6H21.8z M22.4,68.3h40.2L52,49H11.7
			L22.4,68.3z M62,63.2l2,3.7L70.3,49H62V63.2z M57.8,55.5l2.1,3.9l0.2,0V17.2h-2.3v38.2h-0.1L57.8,55.5z M20.6,47.1h31.9
			c0.4,0,0.7,0.2,0.8,0.5l2.3,4.1l0.2,0V12.9H31.2v3.3c0,1.7-1.4,3.1-3.1,3.1c-1.7,0-3.1-1.4-3.1-3.1v-1H27v1c0,0.6,0.5,1.2,1.2,1.2
			c0.6,0,1.2-0.5,1.2-1.2v-3.3h-8.7V47.1z M27.1,8.7c-1.2,0-2.2,1-2.2,2.2V11h4.4v-0.1C29.3,9.7,28.3,8.7,27.1,8.7z"/>
	</g>
	<g>
		<g>
			<rect x="26" y="28.2" class="st0" width="1.9" height="1.9"/>
		</g>
	</g>
	<g>
		<g>
			<rect x="30.2" y="28.2" class="st0" width="22.2" height="1.9"/>
		</g>
	</g>
	<g>
		<g>
			<rect x="23.8" y="32.4" class="st0" width="28.5" height="1.9"/>
		</g>
	</g>
	<g>
		<g>
			<rect x="23.8" y="36.6" class="st0" width="24.3" height="1.9"/>
		</g>
	</g>
	<g>
		<g>
			<rect x="51.4" y="20.8" class="st0" width="1.9" height="1.9"/>
		</g>
	</g>
	<g>
		<g>
			<rect x="51.4" y="16.6" class="st0" width="1.9" height="1.9"/>
		</g>
	</g>
</g>
</svg>
