<?xml version="1.0" encoding="utf-8"?>
<!-- Generator: Adobe Illustrator 24.0.2, SVG Export Plug-In . SVG Version: 6.00 Build 0)  -->
<svg version="1.1" id="Layer_1" xmlns="http://www.w3.org/2000/svg" xmlns:xlink="http://www.w3.org/1999/xlink" x="0px" y="0px"
	 viewBox="0 0 512 512" style="enable-background:new 0 0 512 512;" xml:space="preserve">
<style type="text/css">
	.st0{fill:#3F9A47;}
</style>
<g>
	<g>
		<g>
			<path class="st0" d="M331.5,276.1c-13.7-10.8-26.8-21.9-35.4-30.6c-11.3-11.3-21.3-22.2-30.1-32.6c13.6-42.1,19.6-63.8,19.6-75.4
				c0-49.2-17.8-59.3-44.4-59.3c-20.3,0-44.4,10.5-44.4,60.7c0,22.1,12.1,48.9,36.1,80.1c-5.9,17.9-12.8,38.6-20.5,61.9
				c-3.7,11.2-7.8,21.5-12.1,31.1c-3.5,1.5-6.9,3.1-10.1,4.8c-11.8,5.9-23,11.2-33.3,16.1c-47.3,22.4-78.6,37.2-78.6,66.5
				c0,21.2,23.1,34.4,44.4,34.4c27.5,0,69.1-36.8,99.5-98.8c31.5-12.4,70.7-21.7,101.7-27.4c24.8,19.1,52.2,37.3,65.5,37.3
				c36.7,0,44.4-21.2,44.4-39c0-35-40-35-59.3-35C368.5,270.8,352.5,272.6,331.5,276.1z M122.7,404.1c-8.5,0-14.2-4-14.8-4.8
				c0-10.5,31.3-25.3,61.6-39.7c1.9-0.9,3.9-1.8,5.9-2.8C153.1,389.2,131.1,404.1,122.7,404.1z M226.4,138.9c0-31,9.6-31,14.8-31
				c10.5,0,14.8,0,14.8,29.6c0,6.3-4.2,21.9-11.8,46.3C232.6,165.8,226.4,150.5,226.4,138.9z M237.7,298.1c0.9-2.6,1.8-5.2,2.7-7.8
				c5.5-16.5,10.4-31.3,14.9-44.6c6.1,6.8,12.8,13.7,19.9,20.8c2.8,2.8,9.7,9,18.8,16.9C275.7,287.3,256.3,292.2,237.7,298.1z
				 M404.1,305.8c0,6.7,0,9.4-13.7,9.5c-4-0.9-13.4-6.4-24.9-14.2c4.2-0.5,7.3-0.7,9-0.7C396.4,300.4,402.6,302.6,404.1,305.8z"/>
		</g>
	</g>
</g>
</svg>
