<?xml version="1.0" encoding="utf-8"?>
<!-- Generator: Adobe Illustrator 24.0.2, SVG Export Plug-In . SVG Version: 6.00 Build 0)  -->
<svg version="1.1" id="Layer_1" xmlns="http://www.w3.org/2000/svg" xmlns:xlink="http://www.w3.org/1999/xlink" x="0px" y="0px"
	 viewBox="0 0 96 48" style="enable-background:new 0 0 96 48;" xml:space="preserve">
<style type="text/css">
	.st0{fill:#FFFFFF;}
</style>
<path class="st0" d="M39.2,40.1c-0.3,0-0.4-0.1-0.7-0.3c-2-2-3.1-3-4.2-4.1c-1.1-1.1-4.7-4.7-4.7-4.7l-0.5,0.4
	C27,33.1,24.7,34,22,34.3c-0.5,0.1-1,0.1-1.6,0.1c-6.6,0-12.3-4.5-13.8-10.9c-0.1-0.5-0.2-1-0.2-1.5c0-0.3,0-0.5-0.1-0.8l0-0.1v-1.5
	l0,0l0.1-0.3c0-0.2,0-0.3,0-0.5c0-0.2,0.1-0.5,0.1-0.7c0.5-2.7,1.7-5.2,3.5-7.1c2.4-2.6,5.3-4.1,8.7-4.4c0,0,0,0,0,0
	c0.1,0,0.3,0,0.5-0.1c0.1,0,0.3,0,0.4,0h1.6c0.1,0,0.3,0,0.4,0c0.2,0,0.4,0.1,0.6,0.1c2.4,0.3,4.6,1.2,6.5,2.6c3.1,2.2,5,5.3,5.6,9
	c0.7,4-0.3,7.7-2.8,11l-0.5,0.6c0,0,6.8,6.7,8.8,8.7c0.2,0.2,0.3,0.4,0.3,0.7C40.2,39.8,39.6,40.1,39.2,40.1z M20.5,8.5
	c-6.7,0-12,5.3-12.1,12c0,6.6,5.4,12,12.1,12c6.5,0,12-5.4,12.1-12C32.6,13.8,27.2,8.5,20.5,8.5z"/>
<path class="st0" d="M88.2,38c-0.3,0-0.6-0.1-0.8-0.3l-12.9-13l-13,13c-0.2,0.2-0.4,0.3-0.7,0.3c-0.3,0-0.5-0.1-0.7-0.3L60,37.7
	c-0.4-0.4-0.4-1,0-1.4l13-13l-12.9-13c-0.4-0.4-0.4-1.1,0-1.5c0.1-0.1,0.4-0.2,0.6-0.2c0.3,0,0.5,0.1,0.7,0.3l13,13l13-13.1
	c0.2-0.2,0.4-0.3,0.7-0.3s0.5,0.1,0.7,0.3L89,8.9c0.4,0.4,0.4,1,0,1.4L75.9,23.3l13,13c0.4,0.4,0.4,1.1,0,1.5
	C88.7,37.9,88.5,38,88.2,38z"/>
</svg>
